# xmcd
#
# Track frame offsets: 
#        150
#        11475
#        26358
#        38965
#        58835
#        70917
#        88779
#        106374
#        120288
#        134592
#        147499
#        158426
#        174737
#
# Disc length: 2602 seconds
#
# Revision: 0
# Processed by: cddbd v1.5.2PL0 Copyright (c) Steve Scherf et al.
# Submitted via: ExactAudioCopy v0.90b4
#
DISCID=ae0a280d
DTITLE=The Curst Sons - The Original and Genuine
DYEAR=2010
DGENRE=Bluegrass
TTITLE0=Murder
TTITLE1=Bang Bang Billy
TTITLE2=Aint done it my self
TTITLE3=Hate (Aint it Sad)
TTITLE4=Snowbound
TTITLE5=Wild Country
TTITLE6=Stop Sign Disaster
TTITLE7=Never Liked It
TTITLE8=Ten Years
TTITLE9=Time Bomb
TTITLE10=Till I Met You
TTITLE11=Last One at the Party
TTITLE12=Put Your Name Here
EXTD=
EXTT0=
EXTT1=
EXTT2=
EXTT3=
EXTT4=
EXTT5=
EXTT6=
EXTT7=
EXTT8=
EXTT9=
EXTT10=
EXTT11=
EXTT12=
PLAYORDER=
